<?xml version="1.0" standalone="no"?>
<!DOCTYPE svg PUBLIC "-//W3C//DTD SVG 20010904//EN"
 "http://www.w3.org/TR/2001/REC-SVG-20010904/DTD/svg10.dtd">
<svg version="1.0" xmlns="http://www.w3.org/2000/svg"
 width="256.000000pt" height="256.000000pt" viewBox="0 0 256.000000 256.000000"
 preserveAspectRatio="xMidYMid meet">
<metadata>
Created by potrace 1.16, written by Peter Selinger 2001-2019
</metadata>
<g transform="translate(0.000000,256.000000) scale(0.100000,-0.100000)"
fill="#000000" stroke="none">
<path d="M755 2489 c-130 -17 -251 -63 -307 -117 -25 -23 -28 -33 -28 -91 0
-37 4 -81 9 -99 7 -23 5 -55 -6 -110 -11 -55 -16 -134 -16 -277 -1 -242 12
-300 103 -477 33 -64 60 -119 60 -122 0 -3 -15 -12 -33 -20 -19 -7 -42 -24
-53 -37 -10 -14 -49 -45 -85 -71 -133 -95 -182 -181 -209 -376 -5 -40 -18 -88
-27 -105 -23 -44 -21 -113 5 -163 11 -23 52 -70 90 -105 132 -121 323 -218
579 -291 73 -21 102 -22 430 -26 351 -3 353 -3 460 23 199 48 389 130 540 234
115 78 146 111 150 158 1 21 5 59 9 85 5 37 1 57 -16 92 -28 58 -113 136 -204
186 -61 34 -208 87 -286 104 -15 3 -32 19 -45 41 -30 57 -112 124 -241 198
-65 38 -158 96 -205 130 -97 70 -199 184 -199 224 0 17 19 46 57 86 101 110
143 236 143 438 0 250 -78 396 -246 459 -98 36 -275 48 -429 29z m229 -330
c54 -15 121 -80 140 -136 11 -31 16 -82 16 -150 0 -57 2 -103 5 -103 3 0 25
20 48 45 33 34 51 45 75 45 43 0 72 -39 72 -97 0 -50 -14 -82 -75 -168 -23
-33 -42 -67 -42 -75 0 -8 -2 -19 -4 -25 -1 -5 3 -36 10 -67 7 -32 10 -68 6
-80 -5 -18 -4 -20 4 -8 6 8 11 23 11 33 0 25 12 21 42 -17 l27 -33 -91 -114
c-101 -127 -238 -317 -238 -330 0 -5 -3 -9 -7 -9 -9 0 -73 113 -73 128 0 5 14
15 30 22 17 7 33 17 36 22 3 5 -17 -2 -45 -17 -72 -36 -128 -41 -168 -16 -18
12 -33 25 -33 30 0 11 75 73 115 94 17 9 26 16 22 17 -4 0 -21 -7 -37 -15 -16
-8 -52 -20 -79 -26 -28 -6 -53 -15 -56 -20 -3 -4 1 -21 9 -37 15 -28 14 -30
-27 -70 -24 -23 -46 -42 -50 -42 -10 0 -9 58 4 123 10 55 9 58 -19 94 -48 62
-150 272 -174 358 -19 70 -22 105 -21 280 0 144 5 222 16 279 9 43 19 81 21
84 13 12 62 -13 101 -53 54 -56 89 -59 155 -14 113 76 183 93 274 68z m-171
-1186 c77 -7 84 -18 37 -64 -24 -24 -28 -34 -20 -49 15 -29 14 -30 -48 -30
l-59 0 -15 55 c-9 32 -11 55 -6 55 6 0 7 7 4 16 -8 22 3 37 23 29 9 -4 46 -9
84 -12z m-116 -86 l20 -64 -41 -59 c-23 -32 -46 -59 -51 -59 -6 0 -11 42 -13
93 -2 81 0 97 18 122 12 17 27 30 34 30 6 0 21 -29 33 -63z m92 -88 l51 -11
-6 -56 c-4 -31 -13 -67 -21 -80 -21 -34 -73 -62 -114 -62 -29 0 -38 5 -47 25
-7 14 -12 37 -12 51 0 26 74 144 90 144 5 0 32 -5 59 -11z"/>
</g>
</svg>
